<?xml version="1.0" encoding="utf-8"?>
<!-- Generator: Adobe Illustrator 22.0.1, SVG Export Plug-In . SVG Version: 6.00 Build 0)  -->
<svg version="1.1" id="Capa_1" xmlns="http://www.w3.org/2000/svg" xmlns:xlink="http://www.w3.org/1999/xlink" x="0px" y="0px"
	 viewBox="0 0 20.3 20.3" style="enable-background:new 0 0 20.3 20.3;" xml:space="preserve">
<style type="text/css">
	.st0{fill:#FFFFFF;}
</style>
<path class="st0" d="M20.1,10.1c0-5.5-4.5-10-10-10s-10,4.5-10,10s4.5,10,10,10c0.1,0,0.1,0,0.2,0v-7.8H8.2V9.9h2.1V8
	c0-2.1,1.3-3.3,3.2-3.3c0.9,0,1.7,0.1,1.9,0.1V7h-1.3c-1,0-1.2,0.5-1.2,1.2v1.6h2.5l-0.3,2.5h-2.2v7.4
	C17.1,18.6,20.1,14.7,20.1,10.1z"/>
</svg>
