<?xml version="1.0" encoding="utf-8"?>
<!-- Generator: Adobe Illustrator 22.0.1, SVG Export Plug-In . SVG Version: 6.00 Build 0)  -->
<svg version="1.1" id="Layer_1" xmlns="http://www.w3.org/2000/svg" xmlns:xlink="http://www.w3.org/1999/xlink" x="0px" y="0px"
	 viewBox="0 0 20.3 20.3" style="enable-background:new 0 0 20.3 20.3;" xml:space="preserve">
<style type="text/css">
	.st0{fill:#FFFFFF;}
</style>
<path class="st0" d="M10.1,0.2c-5.5,0-10,4.5-10,10s4.5,10,10,10s10-4.5,10-10S15.7,0.2,10.1,0.2z M7.2,15.3H4.8V7.9h2.4V15.3z
	 M6,6.9L6,6.9c-0.8,0-1.4-0.6-1.4-1.3C4.7,5,5.2,4.4,6,4.4S7.4,5,7.4,5.7C7.4,6.4,6.9,6.9,6,6.9z M16,15.3h-2.4v-3.9
	c0-1-0.4-1.7-1.2-1.7c-0.7,0-1.1,0.5-1.2,0.9C11,10.7,11,11,11,11.2v4.1H8.6c0,0,0-6.6,0-7.3H11v1c0.3-0.5,0.9-1.2,2.2-1.2
	c1.6,0,2.8,1,2.8,3.3V15.3z"/>
</svg>
