<?xml version="1.0" encoding="utf-8"?>
<!-- Generator: Adobe Illustrator 22.0.1, SVG Export Plug-In . SVG Version: 6.00 Build 0)  -->
<svg version="1.1" id="Layer_1" xmlns="http://www.w3.org/2000/svg" xmlns:xlink="http://www.w3.org/1999/xlink" x="0px" y="0px"
	 viewBox="0 0 20.3 20.3" style="enable-background:new 0 0 20.3 20.3;" xml:space="preserve">
<style type="text/css">
	.st0{fill:#FFFFFF;}
</style>
<path class="st0" d="M10.1,0.2c-5.5,0-10,4.5-10,10s4.5,10,10,10s10-4.5,10-10S15.7,0.2,10.1,0.2z M14.7,7.9c0,0.1,0,0.2,0,0.3
	c0,3-2.3,6.5-6.5,6.5l0,0l0,0c-1.3,0-2.5-0.4-3.5-1c0.2,0,0.4,0,0.5,0c1.1,0,2.1-0.4,2.9-1c-1,0-1.9-0.7-2.1-1.6c0.1,0,0.3,0,0.4,0
	c0.2,0,0.4,0,0.6-0.1c-1.1-0.1-1.9-1-1.9-2.1l0,0c0.3,0.2,0.7,0.3,1,0.3c-0.6-0.4-1-1.1-1-1.9c0-0.4,0.1-0.8,0.3-1.2
	c1.1,1.4,2.8,2.3,4.7,2.4C10.1,8.3,10,8.2,10,8c0-1.3,1-2.3,2.3-2.3C13,5.7,13.6,6,14,6.4c0.5-0.1,1-0.3,1.5-0.6
	c-0.2,0.5-0.5,1-1,1.3C15,7,15.4,6.9,15.8,6.7C15.6,7.2,15.2,7.6,14.7,7.9z"/>
</svg>
